# xmcd
#
# Track frame offsets: 
#        150
#        12610
#        31043
#        46311
#        59051
#        70111
#        83542
#        95081
#        109291
#        121336
#        133652
#        146433
#        156161
#        171185
#        185562
#        204671
#        216590
#        232363
#        250111
#        263499
#        279182
#        296296
#        308329
#        323582
#        336445
#
# Disc length: 4676 seconds
#
# Revision: 2
# Processed by: cddbd v1.5.2PL0 Copyright (c) Steve Scherf et al.
# Submitted via: ExactAudioCopyFreeDBPlugin 1.0
#
DISCID=72124219
DTITLE=Various Artist - The Fame Studios Story: 1961-1973 - Home of t
DTITLE=he Muscle Shoals Sound [Kent-Ace]
DYEAR=2011
DGENRE=Soul
TTITLE0=Lowell Fulson - Lady in the Rain
TTITLE1=Wilson Pickett - Hey Jude
TTITLE2=(unknown female vocalist) - Another Man's Woman, Another Woman
TTITLE2='s Man
TTITLE3=Clarence Carter - Snatching it Back
TTITLE4=Etta James - I Got You Babe
TTITLE5=James Govan - Wanted:  Lover (No Experience Necessary)
TTITLE6=George Jackson - Find 'em, Fool 'em and Forget 'em
TTITLE7=Candi Staton - I'm Just a Prisoner (Of Your Good Lovin')
TTITLE8=The Fame Gang - Grits and Gravy
TTITLE9=The Osmonds - One Bad Apple
TTITLE10=Spencer Wiggins - I'd Rather Go Blind
TTITLE11=Brothers Unlimited - Take Me Back
TTITLE12=Willie Hightower - Walk a Mile in My Shoes
TTITLE13=Clarence Carter - Patches
TTITLE14=Bobbie Gentry - Fancy
TTITLE15=George Jackson - Double Lovin'
TTITLE16=Little Richard - Greenwood, Mississippi
TTITLE17=Roscoe Robinson - What Color is Love
TTITLE18=Lou Rawls - Bring it on Home to Me
TTITLE19=Bettye Swann - I Can't Let You Break My Heart
TTITLE20=Willie Hightower - Back Road into Town
TTITLE21=Candi Staton - The Thanks I Get for Loving You
TTITLE22=George Soulé - Get Involved
TTITLE23=Clarence Carter - Put on Your Shoes and Walk
TTITLE24=Travis Wammack - You Better Move On
EXTD=
EXTT0=
EXTT1=
EXTT2=
EXTT3=
EXTT4=
EXTT5=
EXTT6=
EXTT7=
EXTT8=
EXTT9=
EXTT10=
EXTT11=
EXTT12=
EXTT13=
EXTT14=
EXTT15=
EXTT16=
EXTT17=
EXTT18=
EXTT19=
EXTT20=
EXTT21=
EXTT22=
EXTT23=
EXTT24=
PLAYORDER=
